<?xml version="1.0" encoding="UTF-8"?><svg id="Layer_1" xmlns="http://www.w3.org/2000/svg" viewBox="0 0 829.56 294.43"><defs><style>.cls-1{fill:#000;}.cls-1,.cls-2{stroke-width:0px;}.cls-2{fill:#0537d5;}</style></defs><path class="cls-2" d="M94.98,84.92v124.28h-15.98L20.42,124.87v84.33H0v-124.28h15.98l58.59,84.33v-84.33h20.42Z"/><path class="cls-2" d="M103.36,164.81c0-26.45,20.95-46.69,46.87-46.69s46.87,20.24,46.87,46.69-20.77,46.69-46.87,46.69-46.87-20.42-46.87-46.69ZM177.92,164.81c0-16.16-12.07-28.05-27.7-28.05s-27.7,11.89-27.7,28.05,12.07,28.05,27.7,28.05,27.7-11.89,27.7-28.05Z"/><path class="cls-2" d="M251.02,118.83v20.77c-12.61-.89-27.34,4.97-27.34,24.86v44.74h-19.17v-88.77h19.17v14.91c5.33-12.07,16.16-16.51,27.34-16.51Z"/><path class="cls-2" d="M292.74,138.89v42.61c0,11.36,7.46,11.19,22.02,10.47v17.22c-29.47,3.55-41.19-4.62-41.19-27.7v-42.61h-16.33v-18.46h16.33v-19.17l19.17-5.68v24.86h22.02v18.46h-22.02Z"/><path class="cls-2" d="M409.27,154.69v54.5h-19.17v-52.55c0-13.49-7.81-20.59-19.88-20.59s-22.55,7.46-22.55,25.57v47.58h-19.17v-124.28h19.17v46.87c5.86-9.23,15.45-13.67,27.52-13.67,19.88,0,34.09,13.49,34.09,36.57Z"/><path class="cls-2" d="M486.61,184.17c0,17.75-15.45,27.34-34.62,27.34-17.75,0-30.54-7.99-36.22-20.77l16.51-9.59c2.84,7.99,9.94,12.78,19.71,12.78,8.52,0,15.09-2.84,15.09-9.94,0-15.8-47.76-6.92-47.76-38.7,0-16.69,14.38-27.16,32.49-27.16,14.56,0,26.63,6.75,32.84,18.46l-16.16,9.05c-3.2-6.92-9.41-10.12-16.69-10.12s-12.96,3.02-12.96,9.41c0,16.16,47.76,6.39,47.76,39.24Z"/><path class="cls-2" d="M525.26,138.89v42.61c0,11.36,7.46,11.19,22.02,10.47v17.22c-29.47,3.55-41.19-4.62-41.19-27.7v-42.61h-16.33v-18.46h16.33v-19.17l19.17-5.68v24.86h22.02v18.46h-22.02Z"/><path class="cls-2" d="M648.2,120.43v88.77h-19.17v-12.78c-6.75,9.41-17.22,15.09-31.07,15.09-24.15,0-44.21-20.42-44.21-46.69s20.06-46.69,44.21-46.69c13.85,0,24.32,5.68,31.07,14.91v-12.61h19.17ZM629.03,164.81c0-16.51-12.07-28.41-28.05-28.41s-28.05,11.89-28.05,28.41,12.07,28.41,28.05,28.41,28.05-11.9,28.05-28.41Z"/><path class="cls-2" d="M711.71,118.83v20.77c-12.61-.89-27.34,4.97-27.34,24.86v44.74h-19.17v-88.77h19.17v14.91c5.33-12.07,16.16-16.51,27.34-16.51Z"/><circle class="cls-2" cx="823.03" cy="84.92" r="6.53"/><circle class="cls-2" cx="764.24" cy="6.53" r="6.53"/><path class="cls-2" d="M809.46,84.17l-31.66-4.65c-.2-.05-.38-.21-.46-.43s-.05-.48.07-.68l12.84-18.54s.12-.19.12-.39c0-.08-.01-.14-.04-.22-.02-.05-.05-.12-.08-.16-.12-.18-.33-.3-.56-.3-.25,0-.44.14-.47.16l-17.19,12.78c-.17.14-.39.17-.59.08-.2-.09-.34-.29-.38-.52l-6.2-51.09c-.05-.34-.31-.59-.61-.59s-.56.25-.61.59l-6.23,51.09c-.04.24-.18.43-.37.52-.2.09-.42.08-.6-.07l-17.31-12.82c-.25-.2-.66-.14-.87.11-.21.24-.17.61,0,.89l12.82,18.49c.12.2.13.46.05.68-.08.22-.17.38-.46.42l-31.66,4.6c-.3.14-.5.44-.5.78s.2.63.5.71l31.65,4.75c.21.05.39.21.47.43s.05.48-.07.68l-12.8,18.5c-.17.29-.23.61-.02.86s.65.33.89.14l17.31-12.84c.18-.14.42-.16.61-.05.2.1.34.31.37.56l6.19,50.91c0,.39.27.72.63.72s.61-.33.61-.72l6.26-50.9c.01-.25.16-.47.35-.57.21-.1.43-.08.61.07l17.08,12.75c.05.04.13.08.21.1.04.01.07.03.09.04.05.01.1.03.17.04h.05c.38,0,.68-.31.68-.69,0-.13-.04-.26-.12-.38l-12.84-18.53c-.12-.2-.13-.46-.05-.68s.25-.39.46-.43l31.65-4.75c.29-.08.5-.37.5-.71s-.21-.64-.5-.72Z"/><circle class="cls-2" cx="764.24" cy="163.31" r="6.53"/><circle class="cls-2" cx="705.45" cy="84.93" r="6.53"/><path class="cls-1" d="M135.64,293.76h-3.95v-33.54l-13.83,23.15h-.57l-13.83-23.15v33.54h-3.95v-39.53h4.91l13.16,22.02,13.16-22.02h4.91v39.53Z"/><path class="cls-1" d="M177.37,290.03v3.73h-23.15v-39.53h22.87v3.73h-18.92v14h17.5v3.73h-17.5v14.34h19.2Z"/><path class="cls-1" d="M215.99,290.03v3.73h-23.15v-39.53h22.87v3.73h-18.92v14h17.5v3.73h-17.5v14.34h19.2Z"/><path class="cls-1" d="M257.42,257.96h-12.14v35.8h-3.95v-35.8h-12.14v-3.73h28.23v3.73Z"/><path class="cls-1" d="M275.81,254.23v39.53h-3.95v-39.53h3.95Z"/><path class="cls-1" d="M323.64,254.23v39.53h-3.39l-22.02-32.19v32.19h-3.95v-39.53h3.39l22.02,32.19v-32.19h3.95Z"/><path class="cls-1" d="M379.96,276.99c0,9.43-7.17,17.45-19.31,17.45s-20.72-9.15-20.72-20.44,8.58-20.44,20.72-20.44c7.4,0,13.83,3.9,17.11,9.71l-3.5,2.03c-2.43-4.74-7.68-7.91-13.61-7.91-10,0-16.77,7.4-16.77,16.6s6.78,16.6,16.77,16.6c9.21,0,14.51-5.31,15.25-11.91h-15.7v-3.73h19.76v2.03Z"/><path class="cls-1" d="M393.24,284.78l3.39-1.98c1.41,4.74,5.14,7.79,11.35,7.79s9.32-2.88,9.32-7.12c0-4.57-3.89-6.04-9.71-7.96-6.44-2.15-12.65-3.84-12.65-11.12s5.59-10.84,12.14-10.84,11.01,3.84,13.04,8.53l-3.33,1.86c-1.47-3.56-4.52-6.55-9.71-6.55-4.74,0-8.19,2.48-8.19,6.83s3.39,5.65,8.75,7.4c7.17,2.37,13.61,4.41,13.61,11.75,0,6.78-5.42,11.07-13.33,11.07-7.28,0-12.65-3.67-14.68-9.66Z"/><path class="cls-1" d="M498.2,276.99c0,9.43-7.17,17.45-19.31,17.45s-20.72-9.15-20.72-20.44,8.58-20.44,20.72-20.44c7.4,0,13.83,3.9,17.11,9.71l-3.5,2.03c-2.43-4.74-7.68-7.91-13.61-7.91-10,0-16.77,7.4-16.77,16.6s6.78,16.6,16.77,16.6c9.21,0,14.51-5.31,15.25-11.91h-15.7v-3.73h19.76v2.03Z"/><path class="cls-1" d="M529.3,277.95h-11.07v15.81h-3.95v-39.53h15.81c6.55,0,11.86,5.31,11.86,11.86,0,5.37-3.61,9.94-8.53,11.35l9.66,16.32h-4.52l-9.26-15.81ZM518.23,274.22h11.86c4.35,0,7.91-3.67,7.91-8.13s-3.56-8.13-7.91-8.13h-11.86v16.26Z"/><path class="cls-1" d="M555.53,273.99c0-11.29,8.92-20.44,20.44-20.44s20.44,9.15,20.44,20.44-8.92,20.44-20.44,20.44-20.44-9.15-20.44-20.44ZM592.46,273.99c0-9.21-7.11-16.6-16.49-16.6s-16.49,7.4-16.49,16.6,7.12,16.6,16.49,16.6,16.49-7.4,16.49-16.6Z"/><path class="cls-1" d="M612.22,280.32v-26.09h3.95v26.09c0,6.27,3.9,10.28,10.73,10.28s10.73-4.01,10.73-10.28v-26.09h3.95v26.09c0,8.64-6.04,14.12-14.68,14.12s-14.68-5.48-14.68-14.12Z"/><path class="cls-1" d="M686.33,266.65c0,7.06-5.31,12.42-12.42,12.42h-10.17v14.68h-3.95v-39.53h14.12c7.11,0,12.42,5.31,12.42,12.42ZM682.38,266.65c0-5.08-3.56-8.7-8.47-8.7h-10.17v17.39h10.17c4.91,0,8.47-3.67,8.47-8.7Z"/></svg>